<?xml version="1.0" encoding="iso-8859-1"?>
<svg xmlns="http://www.w3.org/2000/svg" viewBox="0 0 512 375.47">
  <defs>
    <style>.cls-1{fill:#fff;}</style>
  </defs>
  <title>haze</title>
  <g id="Layer_2" data-name="Layer 2">
    <g id="Layer_1-2" data-name="Layer 1">
      <path class="cls-1" d="M42.67,119.47H315.73a8.54,8.54,0,1,0,0-17.07H42.67a8.54,8.54,0,1,0,0,17.07Z"></path>
      <path class="cls-1" d="M247.47,204.8H59.73a8.54,8.54,0,0,0,0,17.07H247.47a8.54,8.54,0,0,0,0-17.07Z"></path>
      <path class="cls-1" d="M119.47,162.13a8.53,8.53,0,0,0-8.54-8.53H8.53a8.54,8.54,0,0,0,0,17.07h102.4A8.54,8.54,0,0,0,119.47,162.13Z"></path>
      <path class="cls-1" d="M93.87,68.27H213.33a8.54,8.54,0,1,0,0-17.07H93.87a8.54,8.54,0,1,0,0,17.07Z"></path>
      <path class="cls-1" d="M238.93,59.73a8.54,8.54,0,0,0,8.54,8.54H435.2a8.54,8.54,0,0,0,0-17.07H247.47A8.53,8.53,0,0,0,238.93,59.73Z"></path>
      <path class="cls-1" d="M349.87,102.4a8.54,8.54,0,1,0,0,17.07h68.26a8.54,8.54,0,1,0,0-17.07Z"></path>
      <path class="cls-1" d="M179.2,17.07H401.07a8.54,8.54,0,0,0,0-17.07H179.2a8.54,8.54,0,0,0,0,17.07Z"></path>
      <path class="cls-1" d="M469.33,204.8H281.6a8.54,8.54,0,0,0,0,17.07H469.33a8.54,8.54,0,1,0,0-17.07Z"></path>
      <path class="cls-1" d="M418.13,307.2H247.47a8.54,8.54,0,1,0,0,17.07H418.13a8.54,8.54,0,1,0,0-17.07Z"></path>
      <path class="cls-1" d="M366.93,358.4H145.07a8.54,8.54,0,1,0,0,17.07H366.93a8.54,8.54,0,1,0,0-17.07Z"></path>
      <path class="cls-1" d="M503.47,153.6H145.07a8.54,8.54,0,1,0,0,17.07h358.4a8.54,8.54,0,0,0,0-17.07Z"></path>
      <path class="cls-1" d="M93.87,256a8.54,8.54,0,1,0,0,17.07h68.26a8.54,8.54,0,1,0,0-17.07Z"></path>
      <path class="cls-1" d="M221.87,315.73a8.53,8.53,0,0,0-8.54-8.53H59.73a8.54,8.54,0,0,0,0,17.07h153.6A8.54,8.54,0,0,0,221.87,315.73Z"></path>
      <path class="cls-1" d="M187.73,264.53a8.54,8.54,0,0,0,8.54,8.54H384A8.54,8.54,0,0,0,384,256H196.27A8.53,8.53,0,0,0,187.73,264.53Z"></path>
    </g>
  </g>
</svg>
