<svg xmlns="http://www.w3.org/2000/svg" viewBox="0 0 512.32 512.02"><defs><style>.cls-1{fill:#fff;}</style></defs><title>pressure</title><g id="Layer_2" data-name="Layer 2"><g id="Layer_1-2" data-name="Layer 1"><path class="cls-1" d="M213.93,105.76a7,7,0,0,0,7-7v-32a7,7,0,1,0-14,0v32a7,7,0,0,0,7,7Z"/><path class="cls-1" d="M295.27,139.46a7,7,0,0,0,5-2.05l22.63-22.62a7,7,0,0,0-9.72-10.07l-.18.17-22.62,22.62a7,7,0,0,0,5,12Z"/><path class="cls-1" d="M127.63,290.2,105,312.82a7,7,0,1,0,9.73,10.07l.17-.17,22.62-22.62a7,7,0,1,0-9.9-9.9Z"/><path class="cls-1" d="M322,213.81a7,7,0,0,0,7,7h32a7,7,0,0,0,0-14H329A7,7,0,0,0,322,213.81Z"/><path class="cls-1" d="M105.88,213.81a7,7,0,0,0-7-7h-32a7,7,0,1,0,0,14h32A7,7,0,0,0,105.88,213.81Z"/><path class="cls-1" d="M114.91,104.89a7,7,0,0,0-9.9,9.9h0l22.62,22.62a7,7,0,0,0,10.07-9.73l-.17-.17Z"/><path class="cls-1" d="M235.07,213.72,220.8,138.34a7,7,0,0,0-13.75,0l-14.27,75.38a36,36,0,1,0,42.29,0Zm-21.14,51a22,22,0,0,1-11.23-40.8,7,7,0,0,0,3.28-4.7l8-41.93,7.94,41.93a7,7,0,0,0,3.28,4.7,22,22,0,0,1-11.22,40.8Z"/><path class="cls-1" d="M470.09,332.81a87.13,87.13,0,0,0-48.17-69.6C449.17,148.31,378.11,33.07,263.21,5.82S33.07,49.63,5.82,164.53,49.63,394.67,164.53,421.92a213.91,213.91,0,0,0,49.39,5.77c2,0,4-.07,6.05-.15l1,0h24.84L231.33,442a7,7,0,1,0,9.92,9.91h0l24.4-24.4h37.8l-14.52,14.52a7,7,0,1,0,9.92,9.88l24.42-24.4h37.78l-14.52,14.52a7,7,0,0,0,9.92,9.88h0l24.4-24.4h37.8l-14.52,14.52a7,7,0,0,0,9.5,10.28c.13-.13.27-.26.39-.4l24.42-24.4h26.35a47.5,47.5,0,0,0,5.3-94.7Zm-456-119c-.23-110.39,89.07-200.06,199.46-200.3S413.57,102.58,413.8,213a200.41,200.41,0,0,1-5,45,86.79,86.79,0,0,0-12.32-2.7c22.9-100.84-40.27-201.15-141.11-224.06S54.19,71.48,31.29,172.32A187.21,187.21,0,0,0,161.54,393.56a47.36,47.36,0,0,0,7.64,15A200.18,200.18,0,0,1,14.05,213.81ZM172.49,347.48c-3.44-1.06-6.85-2.2-10.14-3.51l15-15a119.53,119.53,0,0,0,20.47,4.52A47.48,47.48,0,0,0,172.49,347.48Zm38.86-27a105.94,105.94,0,0,1-33.48-6.15,7,7,0,0,0-7.32,1.64L145.2,341.34a7,7,0,0,0,1.9,11.24,149.62,149.62,0,0,0,17.14,7,47.24,47.24,0,0,0-4.59,18.78,173.65,173.65,0,1,1,222.66-124,86.09,86.09,0,0,0-75.18,46.31,69.1,69.1,0,0,0-95.7,19.73l-.08.13Zm253.44,93H207a33.5,33.5,0,0,1,0-67h0c.68,0,1.34.05,2.4.12a7,7,0,0,0,7.16-4.88,55.62,55.62,0,0,1,4.5-10.32c.08-.12.13-.26.21-.4a55.09,55.09,0,0,1,75.15-20.53,55.7,55.7,0,0,1,8.79,6.23,7,7,0,0,0,9.87-.69,6.77,6.77,0,0,0,1.22-2,72.31,72.31,0,0,1,67.51-45.8c1.15,0,2.27.12,3.41.18h.18a72.89,72.89,0,0,1,69,71.28,7,7,0,0,0,7.09,6.88h.15l1.11-.06a33.5,33.5,0,1,1,0,67h0Z"/><path class="cls-1" d="M383.85,286.24a7,7,0,0,0,0,14,40.81,40.81,0,0,1,40.6,40,7,7,0,0,0,7,6.89h.11a7,7,0,0,0,6.89-7.12A54.87,54.87,0,0,0,383.85,286.24Z"/><path class="cls-1" d="M269.17,316.45a41.77,41.77,0,0,0-40,29.29,7,7,0,1,0,13.36,4.2,27.82,27.82,0,0,1,26.64-19.5,7,7,0,0,0,0-14Z"/><path class="cls-1" d="M257.81,473.52,231.34,500a7,7,0,0,0,9.73,10.07l.17-.17,26.47-26.47A7,7,0,0,0,258,473.34Z"/><path class="cls-1" d="M315.41,473.52,288.94,500a7,7,0,0,0,9.89,9.9l26.47-26.47a7,7,0,0,0-9.89-9.89Z"/><path class="cls-1" d="M373,473.52,346.53,500a7,7,0,1,0,9.73,10.07l.17-.17,26.47-26.47a7,7,0,0,0-9.73-10.07l-.17.18Z"/><path class="cls-1" d="M430.59,473.52,404.13,500a7,7,0,0,0,9.89,9.9l26.47-26.47a7,7,0,0,0-9.9-9.89Z"/></g></g></svg>